<svg xmlns="http://www.w3.org/2000/svg" width="180" height="180" viewBox="0 0 180 180">
  <rect width="180" height="180" rx="40" fill="#FF4785"/>
  <!-- 逆方向に開く本 -->
  <path d="M40 55c0-5.5 4.5-10 10-10h40v90H50c-5.5 0-10-4.5-10-10V55z" fill="rgba(255,255,255,0.65)"/>
  <path d="M90 45h40c5.5 0 10 4.5 10 10v70c0 5.5-4.5 10-10 10H90V45z" fill="rgba(255,255,255,0.92)"/>
  <rect x="87" y="45" width="6" height="90" fill="rgba(255,255,255,0.35)"/>
  <!-- 右: デザイン要素 -->
  <circle cx="115" cy="70" r="14" fill="#FF4785" opacity="0.6"/>
  <rect x="101" y="94" width="28" height="20" rx="4" fill="#FF4785" opacity="0.4"/>
  <!-- 左: コード -->
  <text x="65" y="95" text-anchor="middle" font-family="monospace" font-weight="700" font-size="36" fill="#FF4785" opacity="0.5">&lt;/&gt;</text>
  <!-- 逆矢印 -->
  <path d="M120 128l-60 0" stroke="rgba(255,255,255,0.5)" stroke-width="4" stroke-dasharray="8 5"/>
  <path d="M68 122l-8 6 8 6" stroke="rgba(255,255,255,0.5)" stroke-width="4" fill="none" stroke-linecap="round" stroke-linejoin="round"/>
</svg>
